<?xml version="1.0" encoding="UTF-8" standalone="no"?>
<svg
   width="533.31793"
   height="530.05408"
   viewBox="0 0 15.999538 15.901622"
   fill="none"
   version="1.1"
   id="svg1"
   sodipodi:docname="facebook-svgrepo-com.svg"
   xml:space="preserve"
   xmlns:inkscape="http://www.inkscape.org/namespaces/inkscape"
   xmlns:sodipodi="http://sodipodi.sourceforge.net/DTD/sodipodi-0.dtd"
   xmlns="http://www.w3.org/2000/svg"
   xmlns:svg="http://www.w3.org/2000/svg"><defs
     id="defs1" /><sodipodi:namedview
     id="namedview1"
     pagecolor="#ffffff"
     bordercolor="#000000"
     borderopacity="0.25"
     inkscape:showpageshadow="2"
     inkscape:pageopacity="0.0"
     inkscape:pagecheckerboard="0"
     inkscape:deskcolor="#d1d1d1" /><path
     d="m 15.999392,7.9016226 c -0.0187,-1.5245 -0.4727,-3.01191 -1.3085,-4.28705 -0.8358,-1.27514 -2.0185,-2.28491 -3.4089,-2.91038002 -1.3905,-0.62547 -2.9307,-0.84059 -4.4393,-0.62004 -1.50857,0.22056 -2.92273,0.8676 -4.0759,1.86495002 -1.15318,0.99734 -1.99734997,2.30344 -2.43309997,3.76447 -0.43574,1.46105 -0.44492,3.01615 -0.02644,4.4822504 0.41848,1.4661 1.24717997,2.782 2.38850997,3.7929 1.14132,1.0109 2.54775,1.6746 4.05363,1.9129 v -5.67 H 4.749402 V 7.9016226 h 1.99999 v -1.77 c -0.0463,-0.41154 -0.0017,-0.82825 0.1307,-1.22069 0.1324,-0.39244 0.3493,-0.75104 0.6354,-1.05049 0.2861,-0.29946 0.6344,-0.53247 1.0204,-0.68258 0.386,-0.15012 0.8003,-0.21369 1.2135,-0.18621 0.5998,0.00821 1.1982,0.0617 1.79,0.16 v 2 h -1 c -0.1724,-0.02175 -0.3476,-0.00447 -0.5124,0.05056 -0.1649,0.05503 -0.3153,0.1464 -0.4401,0.26736 -0.1248,0.12096 -0.2208,0.26842 -0.2809,0.43145 -0.0602,0.1631 -0.0829,0.3376 -0.0666,0.5106 v 1.51 h 2.22 l -0.36,2.3300004 h -1.85 v 5.6 c 1.8899,-0.2989 3.6101,-1.2653 4.8485,-2.7239 1.2384,-1.4586 1.913,-3.3127004 1.9015,-5.2261004 z"
     fill="#000000"
     id="path1"
     style="fill:white;fill-opacity:1"
     inkscape:export-filename="path1.png"
     inkscape:export-xdpi="96"
     inkscape:export-ydpi="96" /></svg>
