<?xml version="1.0" encoding="UTF-8" standalone="no"?>
<svg
   width="533.36011"
   height="374.56192"
   viewBox="0 0 16.000803 11.236858"
   fill="none"
   version="1.1"
   id="svg1"
   sodipodi:docname="facebook-svgrepo-com.svg"
   xml:space="preserve"
   xmlns:inkscape="http://www.inkscape.org/namespaces/inkscape"
   xmlns:sodipodi="http://sodipodi.sourceforge.net/DTD/sodipodi-0.dtd"
   xmlns="http://www.w3.org/2000/svg"
   xmlns:svg="http://www.w3.org/2000/svg"><defs
     id="defs1" /><sodipodi:namedview
     id="namedview1"
     pagecolor="#ffffff"
     bordercolor="#000000"
     borderopacity="0.25"
     inkscape:showpageshadow="2"
     inkscape:pageopacity="0.0"
     inkscape:pagecheckerboard="0"
     inkscape:deskcolor="#d1d1d1" /><g
     style="fill:white;fill-opacity:1"
     id="g1"
     transform="translate(-3.9996021,-6.3765835)"><path
       d="M 19.67,8.14002 C 19.5811,7.7973 19.4028,7.48433 19.1533,7.23309 18.9038,6.98185 18.5921,6.80134 18.25,6.71001 16.176,6.4654 14.0883,6.35517 12,6.38001 9.91174,6.35517 7.82405,6.4654 5.75001,6.71001 5.40793,6.80134 5.09622,6.98185 4.84674,7.23309 4.59725,7.48433 4.41894,7.7973 4.33001,8.14002 4.10282,9.41396 3.99236,10.706 4.00001,12 c -0.00803,1.3007 0.10243,2.5994 0.33,3.88 0.09354,0.3372 0.2739,0.6439 0.52308,0.8896 0.24917,0.2457 0.55844,0.4217 0.89692,0.5104 2.07404,0.2446 4.16173,0.3549 6.24999,0.33 2.0883,0.0249 4.176,-0.0854 6.25,-0.33 0.3385,-0.0887 0.6478,-0.2647 0.8969,-0.5104 C 19.3961,16.5239 19.5765,16.2172 19.67,15.88 19.8976,14.5994 20.008,13.3007 20,12 20.0077,10.706 19.8972,9.41396 19.67,8.14002 Z M 10.36,14.39 V 9.63001 L 14.55,12 10.36,14.38 Z"
       fill="#000000"
       id="path1"
       style="fill:white;fill-opacity:1" /></g></svg>
