<?xml version="1.0" encoding="UTF-8" standalone="no"?>
<svg
   width="532.33301"
   height="532.83301"
   viewBox="0 0 15.96999 15.98499"
   fill="none"
   version="1.1"
   id="svg1"
   sodipodi:docname="facebook-svgrepo-com.svg"
   xml:space="preserve"
   xmlns:inkscape="http://www.inkscape.org/namespaces/inkscape"
   xmlns:sodipodi="http://sodipodi.sourceforge.net/DTD/sodipodi-0.dtd"
   xmlns="http://www.w3.org/2000/svg"
   xmlns:svg="http://www.w3.org/2000/svg"><defs
     id="defs1" /><sodipodi:namedview
     id="namedview1"
     pagecolor="#ffffff"
     bordercolor="#000000"
     borderopacity="0.25"
     inkscape:showpageshadow="2"
     inkscape:pageopacity="0.0"
     inkscape:pagecheckerboard="0"
     inkscape:deskcolor="#d1d1d1" /><g
     style="fill:white;fill-opacity:1"
     id="g1"
     transform="translate(-4.0150101,-4.0150099)"><path
       d="m 12,7.90001 c -0.8109,0 -1.6036,0.24047 -2.27782,0.69098 C 9.04794,9.0415 8.52243,9.68184 8.21211,10.431 7.90179,11.1802 7.8206,12.0046 7.9788,12.7999 c 0.15819,0.7953 0.54868,1.5259 1.12208,2.0993 0.57339,0.5733 1.30392,0.9638 2.09922,1.122 0.7954,0.1582 1.6197,0.077 2.3689,-0.2333 0.7492,-0.3103 1.3895,-0.8358 1.84,-1.51 C 15.8596,13.6036 16.1,12.8109 16.1,12 16.1013,11.4612 15.9962,10.9275 15.7906,10.4295 15.585,9.93142 15.2831,9.47892 14.9021,9.09794 14.5211,8.71695 14.0686,8.415 13.5706,8.20942 13.0725,8.00385 12.5388,7.8987 12,7.90001 Z M 12,14.67 c -0.5281,0 -1.0443,-0.1566 -1.4834,-0.45 C 10.0776,13.9267 9.73534,13.5097 9.53326,13.0218 9.33117,12.5339 9.2783,11.9971 9.38132,11.4791 9.48434,10.9612 9.73863,10.4854 10.112,10.112 c 0.3734,-0.37337 0.8492,-0.62766 1.3671,-0.73068 0.518,-0.10302 1.0548,-0.05015 1.5427,0.15194 0.4879,0.20208 0.9049,0.54434 1.1982,0.98334 0.2934,0.4391 0.45,0.9553 0.45,1.4834 0,0.7081 -0.2813,1.3873 -0.782,1.888 C 13.3873,14.3887 12.7081,14.67 12,14.67 Z m 5.23,-6.93999 c 0,0.19779 -0.0586,0.39113 -0.1685,0.55557 C 16.9516,8.45003 16.7954,8.57821 16.6127,8.65389 16.43,8.72958 16.2289,8.74938 16.0349,8.7108 15.8409,8.67221 15.6628,8.57697 15.5229,8.43712 15.3831,8.29727 15.2878,8.11909 15.2492,7.92511 15.2106,7.73112 15.2304,7.53006 15.3061,7.34733 15.3818,7.16461 15.51,7.00843 15.6744,6.89855 15.8389,6.78866 16.0322,6.73001 16.23,6.73001 c 0.2652,0 0.5196,0.10536 0.7071,0.2929 0.1876,0.18753 0.2929,0.44189 0.2929,0.7071 z m 2.71,1 c 0.0291,-1.24317 -0.4346,-2.4474 -1.29,-3.35 -0.8978,-0.86631 -2.1026,-1.34104 -3.35,-1.32 -1.3,-0.06 -5.3,-0.06 -6.59999,0 -1.24279,-0.02691 -2.44622,0.43651 -3.35,1.29 -0.85536,0.9026 -1.31908,2.10683 -1.29,3.35 -0.06,1.29999 -0.06,5.29999 0,6.59999 -0.02908,1.2432 0.43464,2.4474 1.29,3.35 0.90378,0.8535 2.10721,1.3169 3.35,1.29 1.31999,0.08 5.27999,0.08 6.59999,0 1.2432,0.0291 2.4474,-0.4346 3.35,-1.29 0.8554,-0.9026 1.3191,-2.1068 1.29,-3.35 C 20,14 20,10 19.94,8.70001 Z M 18.24,16.73 c -0.1358,0.344 -0.3407,0.6563 -0.6022,0.9178 C 17.3763,17.9093 17.064,18.1142 16.72,18.25 15.1676,18.5639 13.5806,18.6715 12,18.57 10.4228,18.6716 8.83902,18.564 7.29001,18.25 6.94608,18.1142 6.63369,17.9093 6.37223,17.6478 6.11076,17.3863 5.90579,17.074 5.77001,16.73 c -0.42,-1.06 -0.33,-3.56 -0.33,-4.72 0,-1.16 -0.09,-3.66999 0.33,-4.71999 C 5.90196,6.94268 6.10547,6.62698 6.36733,6.36339 6.62919,6.09981 6.94355,5.89423 7.29001,5.76001 8.83902,5.44599 10.4228,5.33839 12,5.44001 c 1.5806,-0.10145 3.1676,0.00615 4.72,0.32 0.344,0.13578 0.6563,0.34075 0.9178,0.60222 0.2615,0.26146 0.4664,0.57385 0.6022,0.91778 0.42,1.06 0.32,3.55999 0.32,4.71999 0,1.16 0.1,3.67 -0.32,4.72 z"
       fill="#000000"
       id="path1"
       style="fill:white;fill-opacity:1" /></g></svg>
